<mxfile host="app.diagrams.net" modified="2023-11-16T13:58:18.855Z" agent="Mozilla/5.0 (X11; Ubuntu; Linux x86_64; rv:120.0) Gecko/20100101 Firefox/120.0" etag="BX8NvufdupB6bcogl04N" version="22.1.2" type="google">
  <diagram name="Page-1" id="gnVFWZGqIc8BrULZ6FPJ">
    <mxGraphModel grid="1" page="1" gridSize="10" guides="1" tooltips="1" connect="1" arrows="1" fold="1" pageScale="1" pageWidth="827" pageHeight="1169" math="0" shadow="0">
      <root>
        <mxCell id="0" />
        <mxCell id="1" parent="0" />
        <mxCell id="oDQM0gnMrSCix5-Gq_yv-5" value="Création d&#39;une demande de jeu" style="edgeStyle=orthogonalEdgeStyle;rounded=0;orthogonalLoop=1;jettySize=auto;html=1;curved=0;exitX=0.505;exitY=0.198;exitDx=0;exitDy=0;exitPerimeter=0;" edge="1" parent="1">
          <mxGeometry relative="1" as="geometry">
            <mxPoint x="413.5" y="151.52" as="targetPoint" />
            <mxPoint x="54" y="150.00000000000003" as="sourcePoint" />
            <Array as="points">
              <mxPoint x="234" y="150" />
              <mxPoint x="234" y="152" />
              <mxPoint x="413" y="152" />
            </Array>
          </mxGeometry>
        </mxCell>
        <mxCell id="oDQM0gnMrSCix5-Gq_yv-15" style="edgeStyle=orthogonalEdgeStyle;rounded=0;orthogonalLoop=1;jettySize=auto;html=1;curved=0;" edge="1" parent="1">
          <mxGeometry relative="1" as="geometry">
            <mxPoint x="49.99666666666651" y="510" as="sourcePoint" />
            <mxPoint x="413.8300000000002" y="510" as="targetPoint" />
            <Array as="points">
              <mxPoint x="230.33" y="510" />
              <mxPoint x="230.33" y="510" />
            </Array>
          </mxGeometry>
        </mxCell>
        <mxCell id="oDQM0gnMrSCix5-Gq_yv-16" value="Action d&#39;une carte 1 sur la carte 2" style="edgeLabel;html=1;align=center;verticalAlign=middle;resizable=0;points=[];" vertex="1" connectable="0" parent="oDQM0gnMrSCix5-Gq_yv-15">
          <mxGeometry x="-0.1067" relative="1" as="geometry">
            <mxPoint as="offset" />
          </mxGeometry>
        </mxCell>
        <mxCell id="oDQM0gnMrSCix5-Gq_yv-24" style="edgeStyle=orthogonalEdgeStyle;rounded=0;orthogonalLoop=1;jettySize=auto;html=1;curved=0;" edge="1" parent="1">
          <mxGeometry relative="1" as="geometry">
            <mxPoint x="49.666666666666515" y="761" as="sourcePoint" />
            <mxPoint x="413.5000000000002" y="761" as="targetPoint" />
            <Array as="points">
              <mxPoint x="240" y="761" />
              <mxPoint x="240" y="761" />
            </Array>
          </mxGeometry>
        </mxCell>
        <mxCell id="oDQM0gnMrSCix5-Gq_yv-25" value="EndTurn" style="edgeLabel;html=1;align=center;verticalAlign=middle;resizable=0;points=[];" vertex="1" connectable="0" parent="oDQM0gnMrSCix5-Gq_yv-24">
          <mxGeometry x="0.0902" relative="1" as="geometry">
            <mxPoint as="offset" />
          </mxGeometry>
        </mxCell>
        <mxCell id="oDQM0gnMrSCix5-Gq_yv-2" value="Front 1" style="shape=umlLifeline;perimeter=lifelinePerimeter;whiteSpace=wrap;html=1;container=1;dropTarget=0;collapsible=0;recursiveResize=0;outlineConnect=0;portConstraint=eastwest;newEdgeStyle={&quot;curved&quot;:0,&quot;rounded&quot;:0};" vertex="1" parent="1">
          <mxGeometry y="60" width="100" height="910" as="geometry" />
        </mxCell>
        <mxCell id="oDQM0gnMrSCix5-Gq_yv-18" value="Mise à jour des effets" style="edgeStyle=orthogonalEdgeStyle;rounded=0;orthogonalLoop=1;jettySize=auto;html=1;curved=0;" edge="1" parent="1">
          <mxGeometry relative="1" as="geometry">
            <mxPoint x="413.9966666666667" y="674.58" as="sourcePoint" />
            <mxPoint x="776.83" y="674.58" as="targetPoint" />
          </mxGeometry>
        </mxCell>
        <mxCell id="oDQM0gnMrSCix5-Gq_yv-23" value="Mise à jour des points d&#39;actions" style="edgeStyle=orthogonalEdgeStyle;rounded=0;orthogonalLoop=1;jettySize=auto;html=1;curved=0;" edge="1" parent="1">
          <mxGeometry relative="1" as="geometry">
            <Array as="points">
              <mxPoint x="240" y="729" />
              <mxPoint x="240" y="729" />
            </Array>
            <mxPoint x="413.5" y="729" as="sourcePoint" />
            <mxPoint x="49.810344827586164" y="729" as="targetPoint" />
          </mxGeometry>
        </mxCell>
        <mxCell id="oDQM0gnMrSCix5-Gq_yv-27" value="Donne la main au joueur suivant" style="edgeStyle=orthogonalEdgeStyle;rounded=0;orthogonalLoop=1;jettySize=auto;html=1;curved=0;" edge="1" parent="1">
          <mxGeometry relative="1" as="geometry">
            <mxPoint x="413.66666666666674" y="799" as="sourcePoint" />
            <mxPoint x="776.5" y="799" as="targetPoint" />
            <Array as="points">
              <mxPoint x="590" y="799" />
              <mxPoint x="590" y="799" />
            </Array>
          </mxGeometry>
        </mxCell>
        <mxCell id="oDQM0gnMrSCix5-Gq_yv-30" value="Joueur 1 gagne" style="edgeStyle=orthogonalEdgeStyle;rounded=0;orthogonalLoop=1;jettySize=auto;html=1;curved=0;" edge="1" parent="1">
          <mxGeometry relative="1" as="geometry">
            <mxPoint x="413.8300000000002" y="859" as="sourcePoint" />
            <mxPoint x="49.99666666666651" y="859" as="targetPoint" />
            <Array as="points">
              <mxPoint x="310.33" y="859" />
              <mxPoint x="310.33" y="859" />
            </Array>
          </mxGeometry>
        </mxCell>
        <mxCell id="oDQM0gnMrSCix5-Gq_yv-3" value="NodeJS" style="shape=umlLifeline;perimeter=lifelinePerimeter;whiteSpace=wrap;html=1;container=1;dropTarget=0;collapsible=0;recursiveResize=0;outlineConnect=0;portConstraint=eastwest;newEdgeStyle={&quot;curved&quot;:0,&quot;rounded&quot;:0};" vertex="1" parent="1">
          <mxGeometry x="365" y="60" width="100" height="960" as="geometry" />
        </mxCell>
        <mxCell id="oDQM0gnMrSCix5-Gq_yv-6" value="Connexion à la room de jeu" style="edgeStyle=orthogonalEdgeStyle;rounded=0;orthogonalLoop=1;jettySize=auto;html=1;curved=0;" edge="1" parent="1">
          <mxGeometry x="-0.0227" y="-10" relative="1" as="geometry">
            <mxPoint x="776.69" y="201.0344827586207" as="sourcePoint" />
            <mxPoint x="414.0003448275863" y="200" as="targetPoint" />
            <Array as="points">
              <mxPoint x="777" y="200" />
            </Array>
            <mxPoint as="offset" />
          </mxGeometry>
        </mxCell>
        <mxCell id="oDQM0gnMrSCix5-Gq_yv-4" value="Front 2" style="shape=umlLifeline;perimeter=lifelinePerimeter;whiteSpace=wrap;html=1;container=1;dropTarget=0;collapsible=0;recursiveResize=0;outlineConnect=0;portConstraint=eastwest;newEdgeStyle={&quot;curved&quot;:0,&quot;rounded&quot;:0};" vertex="1" parent="1">
          <mxGeometry x="727" y="60" width="100" height="940" as="geometry" />
        </mxCell>
        <mxCell id="oDQM0gnMrSCix5-Gq_yv-7" style="edgeStyle=orthogonalEdgeStyle;rounded=0;orthogonalLoop=1;jettySize=auto;html=1;curved=0;" edge="1" parent="1">
          <mxGeometry relative="1" as="geometry">
            <mxPoint x="414" y="220" as="sourcePoint" />
            <mxPoint x="413.9966666666667" y="240" as="targetPoint" />
            <Array as="points">
              <mxPoint x="450" y="220" />
              <mxPoint x="450" y="240" />
            </Array>
          </mxGeometry>
        </mxCell>
        <mxCell id="oDQM0gnMrSCix5-Gq_yv-8" value="Attribution d&#39;espace de conversation" style="edgeLabel;html=1;align=center;verticalAlign=middle;resizable=0;points=[];" vertex="1" connectable="0" parent="oDQM0gnMrSCix5-Gq_yv-7">
          <mxGeometry x="0.0616" y="-2" relative="1" as="geometry">
            <mxPoint x="92" y="-3" as="offset" />
          </mxGeometry>
        </mxCell>
        <mxCell id="oDQM0gnMrSCix5-Gq_yv-9" value="Choix du joueur commençant" style="edgeStyle=orthogonalEdgeStyle;rounded=0;orthogonalLoop=1;jettySize=auto;html=1;curved=0;" edge="1" parent="1">
          <mxGeometry y="-90" relative="1" as="geometry">
            <mxPoint x="413.49000000000024" y="350" as="sourcePoint" />
            <mxPoint x="413.49000000000024" y="370" as="targetPoint" />
            <Array as="points">
              <mxPoint x="359.99" y="370" />
            </Array>
            <mxPoint as="offset" />
          </mxGeometry>
        </mxCell>
        <mxCell id="oDQM0gnMrSCix5-Gq_yv-14" value="&lt;font style=&quot;font-size: 10px;&quot;&gt;Initialisation&lt;/font&gt;" style="shape=umlFrame;whiteSpace=wrap;html=1;pointerEvents=0;width=80;height=15;" vertex="1" parent="1">
          <mxGeometry y="120" width="850" height="320" as="geometry" />
        </mxCell>
        <mxCell id="oDQM0gnMrSCix5-Gq_yv-17" value="Traitement des effets (Attaques, pouvoir etc..)" style="edgeStyle=orthogonalEdgeStyle;rounded=0;orthogonalLoop=1;jettySize=auto;html=1;curved=0;" edge="1" parent="1">
          <mxGeometry y="40" relative="1" as="geometry">
            <mxPoint x="413.9966666666667" y="610" as="sourcePoint" />
            <mxPoint x="413.9966666666667" y="630" as="targetPoint" />
            <Array as="points">
              <mxPoint x="510" y="630" />
            </Array>
            <mxPoint as="offset" />
          </mxGeometry>
        </mxCell>
        <mxCell id="oDQM0gnMrSCix5-Gq_yv-19" value="Vérification de&amp;nbsp; endTurn et calcul points actions" style="edgeStyle=orthogonalEdgeStyle;rounded=0;orthogonalLoop=1;jettySize=auto;html=1;curved=0;" edge="1" parent="1">
          <mxGeometry y="40" relative="1" as="geometry">
            <mxPoint x="413.9966666666667" y="690" as="sourcePoint" />
            <mxPoint x="413.9966666666667" y="710" as="targetPoint" />
            <Array as="points">
              <mxPoint x="510" y="710" />
            </Array>
            <mxPoint as="offset" />
          </mxGeometry>
        </mxCell>
        <mxCell id="oDQM0gnMrSCix5-Gq_yv-21" value="JEU" style="shape=umlFrame;whiteSpace=wrap;html=1;pointerEvents=0;width=80;height=20;" vertex="1" parent="1">
          <mxGeometry y="450" width="850" height="540" as="geometry" />
        </mxCell>
        <mxCell id="oDQM0gnMrSCix5-Gq_yv-22" value="Phase de jeu" style="shape=umlFrame;whiteSpace=wrap;html=1;pointerEvents=0;width=90;height=15;" vertex="1" parent="1">
          <mxGeometry x="30" y="480" width="770" height="340" as="geometry" />
        </mxCell>
        <mxCell id="oDQM0gnMrSCix5-Gq_yv-28" value="&lt;div&gt;Victoire&lt;/div&gt;" style="shape=umlFrame;whiteSpace=wrap;html=1;pointerEvents=0;width=90;height=15;" vertex="1" parent="1">
          <mxGeometry x="30" y="829" width="770" height="130" as="geometry" />
        </mxCell>
        <mxCell id="oDQM0gnMrSCix5-Gq_yv-29" value="&lt;div&gt;Vérification d&#39;un gagnant -&amp;gt; vers Victoire&lt;/div&gt;" style="edgeStyle=orthogonalEdgeStyle;rounded=0;orthogonalLoop=1;jettySize=auto;html=1;curved=0;" edge="1" parent="1" source="oDQM0gnMrSCix5-Gq_yv-3">
          <mxGeometry x="0.0007" y="20" relative="1" as="geometry">
            <mxPoint x="413.66666666666674" y="630" as="sourcePoint" />
            <mxPoint x="414" y="660" as="targetPoint" />
            <Array as="points">
              <mxPoint x="520" y="639" />
              <mxPoint x="520" y="660" />
              <mxPoint x="414" y="660" />
            </Array>
            <mxPoint as="offset" />
          </mxGeometry>
        </mxCell>
        <mxCell id="QZhBQbxSyByd-HyGM5Au-4" value="Mise à jour des effets" style="edgeStyle=orthogonalEdgeStyle;rounded=0;orthogonalLoop=1;jettySize=auto;html=1;curved=0;" edge="1" parent="1">
          <mxGeometry relative="1" as="geometry">
            <mxPoint x="413.5" y="679" as="sourcePoint" />
            <mxPoint x="49.810344827586164" y="679" as="targetPoint" />
            <Array as="points">
              <mxPoint x="140" y="679" />
              <mxPoint x="140" y="679" />
            </Array>
          </mxGeometry>
        </mxCell>
        <mxCell id="QZhBQbxSyByd-HyGM5Au-6" value="Joueur 2 perd" style="edgeStyle=orthogonalEdgeStyle;rounded=0;orthogonalLoop=1;jettySize=auto;html=1;curved=0;" edge="1" parent="1">
          <mxGeometry relative="1" as="geometry">
            <mxPoint x="413.8103448275863" y="859" as="sourcePoint" />
            <mxPoint x="776.5" y="859" as="targetPoint" />
            <Array as="points">
              <mxPoint x="700" y="859" />
              <mxPoint x="700" y="859" />
            </Array>
          </mxGeometry>
        </mxCell>
        <mxCell id="QZhBQbxSyByd-HyGM5Au-7" value="Demande transaction argent de joueur 2 vers joueur 1" style="edgeStyle=orthogonalEdgeStyle;rounded=0;orthogonalLoop=1;jettySize=auto;html=1;curved=0;" edge="1" parent="1" target="hg-EKefb4vMzSc7bMJ_z-16">
          <mxGeometry x="0.0114" y="10" relative="1" as="geometry">
            <mxPoint x="413.9966666666667" y="879" as="sourcePoint" />
            <mxPoint x="413.9966666666667" y="899" as="targetPoint" />
            <Array as="points">
              <mxPoint x="750" y="880" />
              <mxPoint x="750" y="880" />
            </Array>
            <mxPoint x="1" as="offset" />
          </mxGeometry>
        </mxCell>
        <mxCell id="QZhBQbxSyByd-HyGM5Au-8" value="Mise à jour solde" style="edgeStyle=orthogonalEdgeStyle;rounded=0;orthogonalLoop=1;jettySize=auto;html=1;curved=0;" edge="1" parent="1">
          <mxGeometry relative="1" as="geometry">
            <mxPoint x="415.3300000000002" y="919" as="sourcePoint" />
            <mxPoint x="51.49666666666651" y="919" as="targetPoint" />
            <Array as="points">
              <mxPoint x="311.83" y="919" />
              <mxPoint x="311.83" y="919" />
            </Array>
          </mxGeometry>
        </mxCell>
        <mxCell id="QZhBQbxSyByd-HyGM5Au-9" value="Mise à jour solde" style="edgeStyle=orthogonalEdgeStyle;rounded=0;orthogonalLoop=1;jettySize=auto;html=1;curved=0;" edge="1" parent="1">
          <mxGeometry relative="1" as="geometry">
            <mxPoint x="415.5" y="919" as="sourcePoint" />
            <mxPoint x="778.5" y="919" as="targetPoint" />
            <Array as="points">
              <mxPoint x="701.5" y="919" />
              <mxPoint x="701.5" y="919" />
            </Array>
          </mxGeometry>
        </mxCell>
        <mxCell id="hg-EKefb4vMzSc7bMJ_z-1" style="edgeStyle=orthogonalEdgeStyle;rounded=0;orthogonalLoop=1;jettySize=auto;html=1;curved=0;" edge="1" parent="1">
          <mxGeometry relative="1" as="geometry">
            <mxPoint x="414" y="160" as="sourcePoint" />
            <mxPoint x="414" y="170" as="targetPoint" />
            <Array as="points">
              <mxPoint x="450" y="160" />
              <mxPoint x="450" y="170" />
            </Array>
          </mxGeometry>
        </mxCell>
        <mxCell id="hg-EKefb4vMzSc7bMJ_z-2" value="&lt;div&gt;Création de la room&lt;/div&gt;" style="edgeLabel;html=1;align=center;verticalAlign=middle;resizable=0;points=[];" connectable="0" vertex="1" parent="hg-EKefb4vMzSc7bMJ_z-1">
          <mxGeometry x="0.0616" y="-2" relative="1" as="geometry">
            <mxPoint x="82" as="offset" />
          </mxGeometry>
        </mxCell>
        <mxCell id="hg-EKefb4vMzSc7bMJ_z-4" value="Envoie des infos des cartes et indication du joueur commençant" style="edgeStyle=orthogonalEdgeStyle;rounded=0;orthogonalLoop=1;jettySize=auto;html=1;curved=0;" edge="1" parent="1">
          <mxGeometry x="0.0607" y="-10" relative="1" as="geometry">
            <mxPoint x="424.6900000000002" y="420" as="sourcePoint" />
            <mxPoint x="60.00034482758616" y="420" as="targetPoint" />
            <Array as="points">
              <mxPoint x="240.19" y="420" />
              <mxPoint x="240.19" y="420" />
            </Array>
            <mxPoint as="offset" />
          </mxGeometry>
        </mxCell>
        <mxCell id="hg-EKefb4vMzSc7bMJ_z-5" value="Envoie des infos des cartes et indication du joueur commençant" style="edgeStyle=orthogonalEdgeStyle;rounded=0;orthogonalLoop=1;jettySize=auto;html=1;curved=0;" edge="1" parent="1">
          <mxGeometry x="0.0242" y="10" relative="1" as="geometry">
            <mxPoint x="414.0003448275863" y="420" as="sourcePoint" />
            <mxPoint x="775.69" y="420" as="targetPoint" />
            <Array as="points">
              <mxPoint x="599.19" y="420" />
              <mxPoint x="599.19" y="420" />
            </Array>
            <mxPoint as="offset" />
          </mxGeometry>
        </mxCell>
        <mxCell id="hg-EKefb4vMzSc7bMJ_z-6" value="Info partie trouvée Maj plateau de jeu" style="edgeStyle=orthogonalEdgeStyle;rounded=0;orthogonalLoop=1;jettySize=auto;html=1;curved=0;" edge="1" parent="1">
          <mxGeometry x="0.0607" y="-10" relative="1" as="geometry">
            <mxPoint x="414.6900000000002" y="270" as="sourcePoint" />
            <mxPoint x="50.00034482758616" y="270" as="targetPoint" />
            <Array as="points">
              <mxPoint x="230.19" y="270" />
              <mxPoint x="230.19" y="270" />
            </Array>
            <mxPoint as="offset" />
          </mxGeometry>
        </mxCell>
        <mxCell id="hg-EKefb4vMzSc7bMJ_z-7" value="Info partie rejoins MAJ plateau de jeu" style="edgeStyle=orthogonalEdgeStyle;rounded=0;orthogonalLoop=1;jettySize=auto;html=1;curved=0;" edge="1" parent="1">
          <mxGeometry x="0.0242" y="10" relative="1" as="geometry">
            <mxPoint x="415.0003448275863" y="270" as="sourcePoint" />
            <mxPoint x="776.69" y="270" as="targetPoint" />
            <Array as="points">
              <mxPoint x="600.19" y="270" />
              <mxPoint x="600.19" y="270" />
            </Array>
            <mxPoint as="offset" />
          </mxGeometry>
        </mxCell>
        <mxCell id="hg-EKefb4vMzSc7bMJ_z-8" value="Séléction des cartes" style="edgeStyle=orthogonalEdgeStyle;rounded=0;orthogonalLoop=1;jettySize=auto;html=1;curved=0;" edge="1" parent="1">
          <mxGeometry x="0.0607" y="-10" relative="1" as="geometry">
            <mxPoint x="778.3400000000003" y="300" as="sourcePoint" />
            <mxPoint x="413.65034482758614" y="300" as="targetPoint" />
            <Array as="points">
              <mxPoint x="593.84" y="300" />
              <mxPoint x="593.84" y="300" />
            </Array>
            <mxPoint as="offset" />
          </mxGeometry>
        </mxCell>
        <mxCell id="hg-EKefb4vMzSc7bMJ_z-9" value="Séléction des cartes" style="edgeStyle=orthogonalEdgeStyle;rounded=0;orthogonalLoop=1;jettySize=auto;html=1;curved=0;" edge="1" parent="1">
          <mxGeometry x="0.0242" y="10" relative="1" as="geometry">
            <mxPoint x="51.650344827586274" y="300" as="sourcePoint" />
            <mxPoint x="413.34000000000003" y="300" as="targetPoint" />
            <Array as="points">
              <mxPoint x="236.84000000000006" y="300" />
              <mxPoint x="236.84000000000006" y="300" />
            </Array>
            <mxPoint as="offset" />
          </mxGeometry>
        </mxCell>
        <mxCell id="hg-EKefb4vMzSc7bMJ_z-10" value="Attribution point d&#39;actions" style="edgeStyle=orthogonalEdgeStyle;rounded=0;orthogonalLoop=1;jettySize=auto;html=1;curved=0;" edge="1" parent="1">
          <mxGeometry y="-90" relative="1" as="geometry">
            <mxPoint x="413.5200000000002" y="380" as="sourcePoint" />
            <mxPoint x="413.5200000000002" y="400" as="targetPoint" />
            <Array as="points">
              <mxPoint x="360.02" y="400" />
            </Array>
            <mxPoint as="offset" />
          </mxGeometry>
        </mxCell>
        <mxCell id="hg-EKefb4vMzSc7bMJ_z-12" value="Initialisation de la partie" style="edgeStyle=orthogonalEdgeStyle;rounded=0;orthogonalLoop=1;jettySize=auto;html=1;curved=0;" edge="1" parent="1">
          <mxGeometry y="-90" relative="1" as="geometry">
            <mxPoint x="413.5200000000002" y="320" as="sourcePoint" />
            <mxPoint x="413.5200000000002" y="340" as="targetPoint" />
            <Array as="points">
              <mxPoint x="360.02" y="340" />
            </Array>
            <mxPoint as="offset" />
          </mxGeometry>
        </mxCell>
        <mxCell id="hg-EKefb4vMzSc7bMJ_z-13" value="Vérification point action" style="edgeStyle=orthogonalEdgeStyle;rounded=0;orthogonalLoop=1;jettySize=auto;html=1;curved=0;" edge="1" parent="1">
          <mxGeometry y="-90" relative="1" as="geometry">
            <mxPoint x="413.49000000000024" y="550" as="sourcePoint" />
            <mxPoint x="413.49000000000024" y="570" as="targetPoint" />
            <Array as="points">
              <mxPoint x="359.99" y="570" />
            </Array>
            <mxPoint as="offset" />
          </mxGeometry>
        </mxCell>
        <mxCell id="hg-EKefb4vMzSc7bMJ_z-14" value="Vérification carte existe" style="edgeStyle=orthogonalEdgeStyle;rounded=0;orthogonalLoop=1;jettySize=auto;html=1;curved=0;" edge="1" parent="1">
          <mxGeometry y="-90" relative="1" as="geometry">
            <mxPoint x="413.5200000000002" y="580" as="sourcePoint" />
            <mxPoint x="413.5200000000002" y="600" as="targetPoint" />
            <Array as="points">
              <mxPoint x="360.02" y="600" />
            </Array>
            <mxPoint as="offset" />
          </mxGeometry>
        </mxCell>
        <mxCell id="hg-EKefb4vMzSc7bMJ_z-15" value="Vérification PV carte 1 et 2" style="edgeStyle=orthogonalEdgeStyle;rounded=0;orthogonalLoop=1;jettySize=auto;html=1;curved=0;" edge="1" parent="1">
          <mxGeometry y="-90" relative="1" as="geometry">
            <mxPoint x="413.5200000000002" y="520" as="sourcePoint" />
            <mxPoint x="413.5200000000002" y="540" as="targetPoint" />
            <Array as="points">
              <mxPoint x="360.02" y="540" />
            </Array>
            <mxPoint as="offset" />
          </mxGeometry>
        </mxCell>
        <mxCell id="hg-EKefb4vMzSc7bMJ_z-16" value="MicroService User" style="shape=umlLifeline;perimeter=lifelinePerimeter;whiteSpace=wrap;html=1;container=1;dropTarget=0;collapsible=0;recursiveResize=0;outlineConnect=0;portConstraint=eastwest;newEdgeStyle={&quot;curved&quot;:0,&quot;rounded&quot;:0};" vertex="1" parent="1">
          <mxGeometry x="930" y="60" width="100" height="940" as="geometry" />
        </mxCell>
        <mxCell id="hg-EKefb4vMzSc7bMJ_z-17" value="&lt;div&gt;Réponse&lt;/div&gt;" style="edgeStyle=orthogonalEdgeStyle;rounded=0;orthogonalLoop=1;jettySize=auto;html=1;curved=0;" edge="1" parent="1" source="hg-EKefb4vMzSc7bMJ_z-16" target="oDQM0gnMrSCix5-Gq_yv-3">
          <mxGeometry x="0.0242" relative="1" as="geometry">
            <mxPoint x="423.9966666666667" y="889" as="sourcePoint" />
            <mxPoint x="990" y="890" as="targetPoint" />
            <Array as="points">
              <mxPoint x="870" y="900" />
              <mxPoint x="870" y="900" />
            </Array>
            <mxPoint as="offset" />
          </mxGeometry>
        </mxCell>
      </root>
    </mxGraphModel>
  </diagram>
</mxfile>
